<svg width="731" height="183" viewBox="0 0 731 183" fill="none" xmlns="http://www.w3.org/2000/svg">
<rect width="183" height="183" rx="91.5" fill="url(#paint0_linear_3_5339)"/>
<path d="M92 61.4583C92 58.9119 92.8211 56.4227 94.3594 54.3054C95.8978 52.1881 98.0843 50.5379 100.642 49.5634C103.201 48.5889 106.016 48.3339 108.731 48.8307C111.447 49.3275 113.942 50.5537 115.899 52.3543C117.857 54.1549 119.191 56.449 119.731 58.9465C120.271 61.4441 119.994 64.0328 118.934 66.3854C117.875 68.738 116.08 70.7488 113.778 72.1635C111.476 73.5782 108.769 74.3333 106 74.3333M92 61.4583C92 58.9119 91.1789 56.4227 89.6406 54.3054C88.1022 52.1881 85.9157 50.5379 83.3576 49.5634C80.7994 48.5889 77.9845 48.3339 75.2687 48.8307C72.553 49.3275 70.0584 50.5537 68.1005 52.3543C66.1426 54.1549 64.8092 56.449 64.269 58.9465C63.7288 61.4441 64.0061 64.0328 65.0657 66.3854C66.1253 68.738 67.9197 70.7488 70.222 72.1635C72.5243 73.5782 75.2311 74.3333 78 74.3333M92 61.4583V65.75V61.4583ZM78 74.3333C75.2311 74.3333 72.5243 75.0884 70.222 76.5032C67.9197 77.9179 66.1253 79.9287 65.0657 82.2813C64.0061 84.6339 63.7288 87.2226 64.269 89.7201C64.8092 92.2176 66.1426 94.5117 68.1005 96.3123C70.0584 98.1129 72.553 99.3392 75.2687 99.8359C77.9845 100.333 80.7994 100.078 83.3576 99.1033C85.9157 98.1288 88.1022 96.4786 89.6406 94.3613C91.1789 92.244 92 89.7548 92 87.2083M78 74.3333H82.6667H78ZM106 74.3333C108.769 74.3333 111.476 75.0884 113.778 76.5032C116.08 77.9179 117.875 79.9287 118.934 82.2813C119.994 84.6339 120.271 87.2226 119.731 89.7201C119.191 92.2176 117.857 94.5117 115.899 96.3123C113.942 98.1129 111.447 99.3392 108.731 99.8359C106.016 100.333 103.201 100.078 100.642 99.1033C98.0843 98.1288 95.8978 96.4786 94.3594 94.3613C92.8211 92.244 92 89.7548 92 87.2083M106 74.3333H101.333H106ZM92 87.2083V82.9167V87.2083Z" fill="white"/>
<path d="M92 61.4583C92 58.9119 92.8211 56.4227 94.3594 54.3054C95.8978 52.1881 98.0843 50.5379 100.642 49.5634C103.201 48.5889 106.016 48.3339 108.731 48.8307C111.447 49.3275 113.942 50.5537 115.899 52.3543C117.857 54.1549 119.191 56.449 119.731 58.9465C120.271 61.4441 119.994 64.0328 118.934 66.3854C117.875 68.738 116.08 70.7488 113.778 72.1635C111.476 73.5782 108.769 74.3333 106 74.3333M92 61.4583C92 58.9119 91.1789 56.4227 89.6406 54.3054C88.1022 52.1881 85.9157 50.5379 83.3576 49.5634C80.7994 48.5889 77.9845 48.3339 75.2687 48.8307C72.553 49.3275 70.0584 50.5537 68.1005 52.3543C66.1426 54.1549 64.8092 56.449 64.269 58.9465C63.7288 61.4441 64.0061 64.0328 65.0657 66.3854C66.1253 68.738 67.9197 70.7488 70.222 72.1635C72.5243 73.5782 75.2311 74.3333 78 74.3333M92 61.4583V65.75M106 74.3333C108.769 74.3333 111.476 75.0884 113.778 76.5032C116.08 77.9179 117.875 79.9287 118.934 82.2813C119.994 84.6339 120.271 87.2226 119.731 89.7201C119.191 92.2176 117.857 94.5117 115.899 96.3123C113.942 98.1129 111.447 99.3392 108.731 99.8359C106.016 100.333 103.201 100.078 100.642 99.1033C98.0843 98.1288 95.8978 96.4786 94.3594 94.3613C92.8211 92.244 92 89.7548 92 87.2083M106 74.3333H101.333M78 74.3333C75.2311 74.3333 72.5243 75.0884 70.222 76.5032C67.9197 77.9179 66.1253 79.9287 65.0657 82.2813C64.0061 84.6339 63.7288 87.2226 64.269 89.7201C64.8092 92.2176 66.1426 94.5117 68.1005 96.3123C70.0584 98.1129 72.553 99.3392 75.2687 99.8359C77.9845 100.333 80.7994 100.078 83.3576 99.1033C85.9157 98.1288 88.1022 96.4786 89.6406 94.3613C91.1789 92.244 92 89.7548 92 87.2083M78 74.3333H82.6667M92 87.2083V82.9167" stroke="white" stroke-width="1.99938" stroke-linecap="round" stroke-linejoin="round"/>
<path d="M92 84.6333C98.7011 84.6333 104.133 79.6376 104.133 73.475C104.133 67.3124 98.7011 62.3167 92 62.3167C85.299 62.3167 79.8667 67.3124 79.8667 73.475C79.8667 79.6376 85.299 84.6333 92 84.6333Z" fill="white" stroke="white" stroke-width="1.99938" stroke-linecap="round" stroke-linejoin="round"/>
<path d="M92 82.9167V134.417V82.9167Z" fill="white"/>
<path d="M92 82.9167V134.417" stroke="white" stroke-width="1.99938" stroke-linecap="round" stroke-linejoin="round"/>
<path d="M92 134.417C111.6 134.417 124.667 127.262 124.667 112.958C105.067 112.958 92 120.113 92 134.417Z" fill="white" stroke="white" stroke-width="1.99938" stroke-linecap="round" stroke-linejoin="round"/>
<path d="M91.9999 134.417C72.3999 134.417 59.3333 127.262 59.3333 112.958C78.9333 112.958 91.9999 120.113 91.9999 134.417Z" fill="white" stroke="white" stroke-width="1.99938" stroke-linecap="round" stroke-linejoin="round"/>
<path d="M671.264 119.295L691.835 89.9155L672.123 62.2544H690.546L700.644 77.938L711.278 62.2544H729.003L709.667 89.271L730.775 119.295H712.245L700.644 101.625L688.935 119.295H671.264Z" fill="url(#paint1_linear_3_5339)"/>
<path d="M647.899 54.52V40.5552H662.992V54.52H647.899ZM647.899 119.295V62.2544H662.992V119.295H647.899Z" fill="url(#paint2_linear_3_5339)"/>
<path d="M586.83 119.295V107.533L608.207 82.9868C611.716 78.9764 614.312 76.1297 615.995 74.4468C614.241 74.5542 611.931 74.6258 609.066 74.6616L588.925 74.769V62.2544H636.083V72.9429L614.276 98.0796L606.596 106.405C610.785 106.154 613.381 106.029 614.384 106.029H637.748V119.295H586.83Z" fill="url(#paint3_linear_3_5339)"/>
<path d="M524.525 62.2544H540.585L554.228 102.752L567.548 62.2544H583.178L563.036 117.147L559.438 127.083C558.113 130.414 556.841 132.956 555.624 134.71C554.442 136.465 553.064 137.879 551.488 138.954C549.949 140.064 548.033 140.923 545.741 141.532C543.485 142.14 540.925 142.445 538.061 142.445C535.16 142.445 532.313 142.14 529.521 141.532L528.178 129.715C530.541 130.181 532.672 130.414 534.569 130.414C538.078 130.414 540.674 129.375 542.357 127.298C544.04 125.257 545.329 122.643 546.225 119.457L524.525 62.2544Z" fill="url(#paint4_linear_3_5339)"/>
<path d="M521.195 62.2544V74.2856H510.883V97.2739C510.883 101.929 510.972 104.65 511.151 105.438C511.366 106.19 511.814 106.817 512.494 107.318C513.21 107.819 514.07 108.07 515.072 108.07C516.469 108.07 518.492 107.586 521.142 106.62L522.431 118.329C518.922 119.833 514.947 120.584 510.507 120.584C507.785 120.584 505.333 120.137 503.148 119.242C500.964 118.311 499.353 117.129 498.314 115.697C497.312 114.229 496.614 112.259 496.22 109.789C495.897 108.034 495.736 104.489 495.736 99.1538V74.2856H488.808V62.2544H495.736V50.9214L510.883 42.1128V62.2544H521.195Z" fill="url(#paint5_linear_3_5339)"/>
<path d="M465.336 119.295V110.755C463.259 113.799 460.52 116.198 457.118 117.953C453.752 119.707 450.189 120.584 446.43 120.584C442.598 120.584 439.161 119.743 436.117 118.06C433.074 116.377 430.871 114.014 429.511 110.97C428.15 107.927 427.47 103.719 427.47 98.3481V62.2544H442.562V88.4653C442.562 96.4862 442.831 101.41 443.368 103.236C443.941 105.026 444.962 106.458 446.43 107.533C447.898 108.571 449.76 109.09 452.016 109.09C454.594 109.09 456.903 108.392 458.944 106.996C460.985 105.563 462.382 103.809 463.134 101.732C463.886 99.6193 464.262 94.481 464.262 86.3169V62.2544H479.354V119.295H465.336Z" fill="url(#paint6_linear_3_5339)"/>
<path d="M377.841 79.6567L364.145 77.186C365.684 71.6717 368.334 67.5897 372.094 64.9399C375.854 62.2902 381.439 60.9653 388.852 60.9653C395.583 60.9653 400.596 61.771 403.891 63.3823C407.185 64.9578 409.494 66.981 410.819 69.4517C412.18 71.8866 412.86 76.3804 412.86 82.9331L412.699 100.55C412.699 105.563 412.932 109.269 413.397 111.668C413.899 114.032 414.812 116.574 416.137 119.295H401.205C400.811 118.293 400.328 116.807 399.755 114.837C399.504 113.942 399.325 113.351 399.218 113.065C396.64 115.571 393.882 117.451 390.946 118.705C388.01 119.958 384.877 120.584 381.547 120.584C375.674 120.584 371.037 118.991 367.636 115.804C364.27 112.617 362.587 108.589 362.587 103.719C362.587 100.497 363.357 97.632 364.896 95.1255C366.436 92.5832 368.585 90.6496 371.342 89.3247C374.135 87.964 378.145 86.7824 383.373 85.7798C390.427 84.4549 395.315 83.2196 398.036 82.0737V80.5698C398.036 77.6694 397.32 75.6105 395.888 74.3931C394.455 73.1398 391.752 72.5132 387.777 72.5132C385.092 72.5132 382.997 73.0503 381.493 74.1245C379.989 75.1629 378.772 77.007 377.841 79.6567ZM398.036 91.9028C396.103 92.5474 393.041 93.3172 388.852 94.2124C384.662 95.1076 381.923 95.9849 380.634 96.8442C378.664 98.2407 377.68 100.013 377.68 102.162C377.68 104.274 378.467 106.1 380.043 107.64C381.618 109.18 383.624 109.95 386.059 109.95C388.78 109.95 391.376 109.055 393.847 107.264C395.673 105.903 396.872 104.238 397.445 102.269C397.839 100.98 398.036 98.5272 398.036 94.9106V91.9028Z" fill="url(#paint7_linear_3_5339)"/>
<path d="M338.363 101.141L353.402 103.666C351.469 109.18 348.407 113.387 344.218 116.288C340.064 119.152 334.854 120.584 328.588 120.584C318.669 120.584 311.329 117.344 306.566 110.863C302.807 105.671 300.927 99.118 300.927 91.2046C300.927 81.7515 303.397 74.3573 308.339 69.022C313.28 63.6509 319.529 60.9653 327.084 60.9653C335.57 60.9653 342.266 63.7762 347.172 69.3979C352.077 74.9839 354.423 83.5597 354.208 95.1255H316.396C316.503 99.6014 317.72 103.093 320.048 105.599C322.375 108.07 325.276 109.305 328.749 109.305C331.112 109.305 333.1 108.661 334.711 107.372C336.322 106.083 337.54 104.006 338.363 101.141ZM339.223 85.8872C339.115 81.5187 337.987 78.2065 335.839 75.9507C333.69 73.659 331.076 72.5132 327.997 72.5132C324.703 72.5132 321.981 73.7127 319.833 76.1118C317.685 78.5109 316.628 81.7694 316.664 85.8872H339.223Z" fill="url(#paint8_linear_3_5339)"/>
<path d="M226 40.5552H257.475C263.705 40.5552 268.342 40.8237 271.386 41.3608C274.465 41.8621 277.204 42.9364 279.604 44.5835C282.038 46.2306 284.062 48.4328 285.673 51.1899C287.284 53.9113 288.09 56.9728 288.09 60.3745C288.09 64.0627 287.087 67.4465 285.082 70.5259C283.113 73.6053 280.427 75.9149 277.025 77.4546C281.824 78.8511 285.512 81.2323 288.09 84.5981C290.668 87.964 291.957 91.9207 291.957 96.4683C291.957 100.049 291.116 103.54 289.433 106.942C287.785 110.308 285.512 113.011 282.611 115.052C279.747 117.057 276.202 118.293 271.977 118.758C269.327 119.045 262.935 119.224 252.802 119.295H226V40.5552ZM241.898 53.6606V71.8687H252.318C258.513 71.8687 262.362 71.7791 263.866 71.6001C266.588 71.2778 268.718 70.3468 270.258 68.8071C271.833 67.2316 272.621 65.1727 272.621 62.6304C272.621 60.1955 271.941 58.2261 270.58 56.7222C269.255 55.1825 267.268 54.2515 264.618 53.9292C263.043 53.7502 258.513 53.6606 251.029 53.6606H241.898ZM241.898 84.9741V106.029H256.615C262.344 106.029 265.979 105.868 267.519 105.545C269.882 105.116 271.798 104.077 273.266 102.43C274.77 100.747 275.521 98.5093 275.521 95.7163C275.521 93.353 274.949 91.3478 273.803 89.7007C272.657 88.0535 270.992 86.854 268.808 86.1021C266.659 85.3501 261.968 84.9741 254.735 84.9741H241.898Z" fill="url(#paint9_linear_3_5339)"/>
<defs>
<linearGradient id="paint0_linear_3_5339" x1="157.075" y1="16.0125" x2="-46.5125" y2="183" gradientUnits="userSpaceOnUse">
<stop offset="0.0606243" stop-color="#FB64B6"/>
<stop offset="1" stop-color="#FE9A00"/>
</linearGradient>
<linearGradient id="paint1_linear_3_5339" x1="694.607" y1="75.6595" x2="701.032" y2="109.485" gradientUnits="userSpaceOnUse">
<stop stop-color="#FB66B0"/>
<stop offset="1" stop-color="#FD873F"/>
</linearGradient>
<linearGradient id="paint2_linear_3_5339" x1="653.82" y1="59.0597" x2="677.995" y2="82.4435" gradientUnits="userSpaceOnUse">
<stop stop-color="#FB66B0"/>
<stop offset="1" stop-color="#FD873F"/>
</linearGradient>
<linearGradient id="paint3_linear_3_5339" x1="606.803" y1="75.6595" x2="614.217" y2="109.059" gradientUnits="userSpaceOnUse">
<stop stop-color="#FB66B0"/>
<stop offset="1" stop-color="#FD873F"/>
</linearGradient>
<linearGradient id="paint4_linear_3_5339" x1="547.532" y1="81.0997" x2="559.968" y2="126.999" gradientUnits="userSpaceOnUse">
<stop stop-color="#FB66B0"/>
<stop offset="1" stop-color="#FD873F"/>
</linearGradient>
<linearGradient id="paint5_linear_3_5339" x1="501.996" y1="60.5542" x2="520.365" y2="100.271" gradientUnits="userSpaceOnUse">
<stop stop-color="#FB66B0"/>
<stop offset="1" stop-color="#FD873F"/>
</linearGradient>
<linearGradient id="paint6_linear_3_5339" x1="447.822" y1="75.9624" x2="455.428" y2="110.105" gradientUnits="userSpaceOnUse">
<stop stop-color="#FB66B0"/>
<stop offset="1" stop-color="#FD873F"/>
</linearGradient>
<linearGradient id="paint7_linear_3_5339" x1="383.592" y1="74.9763" x2="391.298" y2="109.905" gradientUnits="userSpaceOnUse">
<stop stop-color="#FB66B0"/>
<stop offset="1" stop-color="#FD873F"/>
</linearGradient>
<linearGradient id="paint8_linear_3_5339" x1="321.832" y1="74.9763" x2="329.572" y2="109.89" gradientUnits="userSpaceOnUse">
<stop stop-color="#FB66B0"/>
<stop offset="1" stop-color="#FD873F"/>
</linearGradient>
<linearGradient id="paint9_linear_3_5339" x1="251.872" y1="59.0597" x2="262.71" y2="104.873" gradientUnits="userSpaceOnUse">
<stop stop-color="#FB66B0"/>
<stop offset="1" stop-color="#FD873F"/>
</linearGradient>
</defs>
</svg>
